<svg aria-hidden="true" style="position:absolute;width:0;height:0;overflow:hidden" xmlns="http://www.w3.org/2000/svg">
  <defs>
  <symbol id="icon-play" viewBox="0 0 32 32">
      <path d="m6 4 20 12L6 28z"/>
    </symbol>
    <symbol id="icon-ai" viewBox="0 0 29 32">
      <path d="m6.812 19.556.757-7.111H.001V8.889h7.947L8.894 0h3.62l-.946 8.889h7.18L19.694 0h3.62l-.946 8.889h6.433v3.556h-6.812l-.757 7.111H28.8v3.556h-7.947l-.946 8.889h-3.62l.946-8.889h-7.18l-.946 8.889h-3.62l.946-8.889H0v-3.556h6.812zm3.62 0h7.18l.757-7.111h-7.18l-.757 7.111z"/>
    </symbol>
    <symbol id="icon-arrow" viewBox="0 0 32 32">
      <path d="M8.154 7.909v4.281h8.151V7.909H8.154z"/>
      <path d="m20.587 7.909-4.283 4.283h-.554v.555l-9.247 9.247 3.027 3.027 9.803-9.803.002 8.124 4.281-.001V12.192l-.002-1.255.001-.001V7.912l-.002-.002h-3.024z"/>
    </symbol>
    <symbol id="icon-cross" viewBox="0 0 37 32">
      <path d="M2.702 12.645h4.839V32H2.702a1.613 1.613 0 0 1-1.613-1.613V14.258c0-.891.722-1.613 1.613-1.613zm8.537-2.085L21.562.237a.806.806 0 0 1 1.054-.075l1.375 1.031a2.418 2.418 0 0 1 .893 2.532l-1.86 7.307h10.323a3.226 3.226 0 0 1 3.226 3.226v3.394c0 .421-.083.839-.243 1.228l-4.991 12.121a1.614 1.614 0 0 1-1.492.999H12.379a1.613 1.613 0 0 1-1.613-1.613V11.7c0-.428.17-.838.472-1.14z"/>
    </symbol>
    <symbol id="icon-customizable" viewBox="0 0 34 32">
      <path d="M1.411 17.619h8.808A29.127 29.127 0 0 0 14.922 32C7.744 30.876 2.136 24.971 1.411 17.619zm0-3.238C2.136 7.029 7.744 1.124 14.922 0a29.127 29.127 0 0 0-4.703 14.381H1.411zm32 0h-8.808A29.127 29.127 0 0 0 19.9 0c7.178 1.123 12.786 7.029 13.511 14.381zm0 3.238C32.686 24.971 27.078 30.876 19.9 32a29.127 29.127 0 0 0 4.703-14.381h8.808zm-19.971 0h7.941a25.885 25.885 0 0 1-3.971 12.293 25.884 25.884 0 0 1-3.97-12.293zm0-3.238a25.895 25.895 0 0 1 3.97-12.293 25.885 25.885 0 0 1 3.971 12.293H13.44z"/>
    </symbol>
    <symbol id="icon-facebook" viewBox="0 0 17 32">
      <path d="M13.992 5.487h2.85V.667a39.734 39.734 0 0 0-4.153-.212c-4.123 0-6.942 2.516-6.942 7.124v3.971H1.094v5.396h4.653V30.77h5.578V16.946h4.638l.697-5.396h-5.336V8.109c0-1.592.424-2.622 2.668-2.622z"/>
    </symbol>
    <symbol id="icon-integrations" viewBox="0 0 32 32">
      <path d="M7.298 21.707A5.336 5.336 0 0 1 5.334 32a5.333 5.333 0 0 1-1.777-10.363V10.363a5.333 5.333 0 1 1 3.554 0v5.636a8.849 8.849 0 0 1 5.333-1.777h7.111c2.46 0 4.53-1.665 5.146-3.929A5.336 5.336 0 0 1 26.665 0a5.333 5.333 0 0 1 1.648 10.407 8.891 8.891 0 0 1-8.76 7.371h-7.111a5.337 5.337 0 0 0-5.147 3.929z"/>
    </symbol>
    <symbol id="icon-linkedin" viewBox="0 0 32 32">
      <path d="M28.548 1.665H3.452A2.151 2.151 0 0 0 1.45 2.964c-.111.26-.171.538-.175.82v25.392a2.143 2.143 0 0 0 .65 1.511 2.135 2.135 0 0 0 1.527.608h25.096a2.151 2.151 0 0 0 2.002-1.299c.111-.26.171-.538.175-.82V3.784a2.143 2.143 0 0 0-.65-1.511 2.135 2.135 0 0 0-1.527-.608zm-18.341 24.8H5.763V13.132h4.444v13.333zm-2.222-15.2a2.307 2.307 0 0 1-2.311-2.311 2.312 2.312 0 0 1 2.311-2.311 2.313 2.313 0 0 1 1.811.577 2.32 2.32 0 0 1 0 3.468 2.338 2.338 0 0 1-1.811.577zm18.252 15.2h-4.444v-7.156c0-1.793-.637-2.963-2.252-2.963a2.443 2.443 0 0 0-2.281 1.615 2.96 2.96 0 0 0-.148 1.081v7.407h-4.444V13.116h4.444v1.881a4.44 4.44 0 0 1 4.014-2.222c2.963 0 5.111 1.911 5.111 6.015v7.674z"/>
    </symbol>
    <symbol id="icon-plan-e" viewBox="0 0 32 32">
      <path d="M30.508 15.944v.008h-4.715v-.121c0-5.604-4.544-10.148-10.146-10.148-.06 0-.121 0-.181.002V.93c8.291.015 15.013 6.726 15.043 15.014z"/>
      <path d="M30.505 15.757c0-.093-.005-.185-.006-.279.003.093.005.185.006.279zM30.496 15.403c-.003-.113-.012-.225-.018-.338 0 .017.003.032.003.048.008.096.012.193.015.289zM30.435 14.514v-.005l.012.119a1.314 1.314 0 0 0-.008-.069l-.005-.045z"/>
      <path d="M30.435 14.51c-.006-.069-.015-.137-.021-.205l.012.089c.005.039.007.077.01.116h-.002zM30.448 14.653l-.002-.024a.763.763 0 0 1 .009.095l.003.057c-.003-.042-.006-.086-.011-.128zM30.329 13.67l-.005-.032c0 .008.003.015.003.021v.011h.002zM30.329 13.675v-.005c.015.102.033.205.045.309v.006l-.045-.31zM30.508 15.944c0-.063-.002-.125-.003-.187 0 .044.003.086.003.13v.057zM30.508 31.022v.048h-4.717c.002-.035.002-.069.002-.104a10.116 10.116 0 0 0-3.323-7.511l-.063-.056a10.109 10.109 0 0 0-6.76-2.581c-.06 0-.121 0-.181.002v-4.868a15 15 0 0 1 9.686 3.549 15.07 15.07 0 0 1 3.354 4.01 14.987 14.987 0 0 1 2.003 7.511zM15.439 15.944v.008h-4.715v-.065a10.113 10.113 0 0 0-2.638-6.824 10.135 10.135 0 0 0-4.18-2.762c-.024-.011-.048-.018-.074-.027a10.156 10.156 0 0 0-3.255-.533c-.069 0-.139 0-.208.003V.931h1.292A14.94 14.94 0 0 1 7.952 2.92 15.17 15.17 0 0 1 12 6.36l.069.086a15.003 15.003 0 0 1 3.37 9.499zM15.466 26.089v4.868h-.027a14.99 14.99 0 0 1-9.393-3.285A15.042 15.042 0 0 1 3.834 25.5a15.003 15.003 0 0 1-3.463-9.548h5.128a10.118 10.118 0 0 0 2.587 6.76 10.143 10.143 0 0 0 7.38 3.377z"/>
    </symbol>
    <symbol id="icon-plan-i" viewBox="0 0 32 32">
      <path d="M17.122 26.578a16.05 16.05 0 0 1 3.733-5.889l.031-.031a16.062 16.062 0 0 1 5.864-3.746 15.955 15.955 0 0 1 4.1-.905 15.655 15.655 0 0 1-4.088-.779 15.464 15.464 0 0 1-6.08-3.759 15.482 15.482 0 0 1-3.759-6.08 15.73 15.73 0 0 1-.791-4.401l-.057.057a15.946 15.946 0 0 1-.927 4.364 16.077 16.077 0 0 1-3.73 5.844l-.012.012a16.056 16.056 0 0 1-5.827 3.732 15.988 15.988 0 0 1-4.393.938l-.018.018c1.489.053 2.968.316 4.392.788a15.485 15.485 0 0 1 6.088 3.763 15.494 15.494 0 0 1 3.762 6.088c.473 1.424.736 2.903.789 4.392l.009-.01c.094-1.49.398-2.972.911-4.398l.003.001z"/>
    </symbol>
    <symbol id="icon-plan-t" viewBox="0 0 32 32">
      <path d="M31.782 7.761v8.486c-7.88-.077-14.301-6.251-14.768-14.033V.779h8.056c-.002.039-.002.078-.002.118a6.864 6.864 0 0 0 6.714 6.864zM15.808 1.381c0 8.096-6.433 14.686-14.467 14.94V7.826A6.866 6.866 0 0 0 7.725.977c0-.066-.002-.131-.003-.197h8.073c.009.199.014.399.014.601zM15.705 31.221H7.621a6.867 6.867 0 0 0-6.281-5.987v-7.689c7.589.262 13.739 6.183 14.365 13.676zM31.782 17.587v7.68a6.864 6.864 0 0 0-6.625 5.954h-8.086c.66-7.582 6.98-13.543 14.711-13.634z"/>
    </symbol>
    <symbol id="icon-quote" viewBox="0 0 51 32">
      <path d="M.333 32 13.601 0h11.317l-7.024 32H.333zm25.106 0L38.707 0h11.317l-7.155 32H25.438z"/>
    </symbol>
    <symbol id="icon-real" viewBox="0 0 32 32">
      <path d="M21.027 1.489v4.112l-5.102 5.102h-.118l-5.102-5.102V1.487c1.613-.579 3.349-.895 5.16-.895s3.549.316 5.162.896zM21.027 26.129v4.112c-1.613.58-3.351.896-5.162.896s-3.547-.315-5.16-.895v-4.114l5.102-5.102h.118l5.102 5.102z"/>
      <path d="m28.909 7.923-2.781 2.781h-5.103V5.602l2.781-2.781a15.342 15.342 0 0 1 5.104 5.102zM10.703 21.027v5.102l-2.782 2.782a15.376 15.376 0 0 1-5.102-5.103L5.6 21.027h5.104zM28.909 23.807a15.358 15.358 0 0 1-5.102 5.103l-2.782-2.782v-5.102h5.103l2.781 2.781zM10.703 5.601v5.102H5.599L2.818 7.922A15.342 15.342 0 0 1 7.922 2.82l2.781 2.781z"/>
      <path d="M31.136 15.865c0 1.811-.316 3.549-.896 5.162h-4.111l-5.103-5.103v-.116l5.103-5.103h4.111c.58 1.613.896 3.35.896 5.161zM10.703 15.807v.116l-5.104 5.103H1.488c-.58-1.613-.896-3.35-.896-5.162s.316-3.549.896-5.161h4.111l5.104 5.103z"/>
    </symbol>
    <symbol id="icon-secure" viewBox="0 0 32 32">
      <path d="M0 0h31.185c.45 0 .815.377.815.842a.856.856 0 0 1-.108.418l-5.821 10.53 5.821 10.529a.858.858 0 0 1-.303 1.149.79.79 0 0 1-.404.111H3.259V32H0V0z"/>
    </symbol>
    <symbol id="icon-twitter" viewBox="0 0 30 32">
      <path d="M27.937 7.777c-.954.414-1.964.688-2.997.813a5.241 5.241 0 0 0 2.298-2.883 10.423 10.423 0 0 1-3.314 1.27 5.202 5.202 0 0 0-6.281-1.063 5.205 5.205 0 0 0-2.608 5.812A14.795 14.795 0 0 1 4.304 6.279a5.28 5.28 0 0 0-.698 2.629 5.19 5.19 0 0 0 2.311 4.33 5.15 5.15 0 0 1-2.362-.648v.063a5.206 5.206 0 0 0 4.19 5.079c-.453.138-.923.21-1.397.216a6.283 6.283 0 0 1-.978-.089 5.213 5.213 0 0 0 4.863 3.607 10.438 10.438 0 0 1-7.695 2.159 14.685 14.685 0 0 0 7.987 2.349 14.721 14.721 0 0 0 14.871-14.832v-.673a10.715 10.715 0 0 0 2.54-2.692z"/>
    </symbol>
    <symbol id="icon-youtube" viewBox="0 0 30 32">
      <path d="M29.206 12.742a10.785 10.785 0 0 0-1.156-5.244 3.71 3.71 0 0 0-2.184-1.27 99.493 99.493 0 0 0-10.629-.394 99.552 99.552 0 0 0-10.59.381 3.646 3.646 0 0 0-1.854.94c-1.143 1.054-1.27 2.857-1.397 4.381a61.406 61.406 0 0 0 0 8.229c.037.858.164 1.709.381 2.54.153.641.463 1.235.902 1.727a3.63 3.63 0 0 0 1.892.99c2.738.338 5.496.478 8.254.419 4.444.064 8.343 0 12.952-.355a3.66 3.66 0 0 0 1.943-.99c.355-.356.621-.791.775-1.27.454-1.394.677-2.852.66-4.317.051-.711.051-5.003.051-5.765zm-16.838 6.527v-7.86l7.517 3.949c-2.108 1.168-4.889 2.489-7.517 3.911z"/>
    </symbol>
    <symbol id="icon-cross1" viewBox="0 0 32 32">
      <path d="M31.708 25.708 22 16l9.708-9.708a1 1 0 0 0 0-1.414L27.122.292a1 1 0 0 0-1.414-.001L16 9.999 6.292.291a.998.998 0 0 0-1.414.001L.292 4.878a1 1 0 0 0 0 1.414L10 16 .292 25.708a.999.999 0 0 0 0 1.414l4.586 4.586a1 1 0 0 0 1.414 0L16 22l9.708 9.708a1 1 0 0 0 1.414 0l4.586-4.586a.999.999 0 0 0 0-1.414z"/>
    </symbol>
  </defs>
</svg>
